<svg id="svg" xmlns="http://www.w3.org/2000/svg" xmlns:xlink="http://www.w3.org/1999/xlink" width="400" height="400" viewBox="0, 0, 400,400"><g id="svgg"><path id="path0" d="M198.962 2.300 C 198.570 3.565,198.140 4.690,198.006 4.800 C 197.871 4.910,197.419 6.170,197.000 7.600 C 196.581 9.030,196.116 10.290,195.966 10.400 C 195.815 10.510,195.370 11.770,194.976 13.200 C 194.582 14.630,194.044 16.160,193.780 16.600 C 193.516 17.040,193.059 18.255,192.763 19.300 C 192.467 20.345,192.085 21.200,191.913 21.200 C 191.741 21.200,191.600 21.449,191.600 21.754 C 191.600 22.474,190.311 26.540,190.001 26.800 C 189.869 26.910,189.419 28.170,189.000 29.600 C 188.581 31.030,188.116 32.290,187.966 32.400 C 187.815 32.510,187.372 33.770,186.980 35.200 C 186.587 36.630,186.027 38.155,185.733 38.589 C 185.057 39.589,185.053 40.594,185.722 41.271 C 186.010 41.562,186.595 42.430,187.022 43.200 C 187.450 43.970,188.025 44.744,188.300 44.920 C 188.575 45.096,188.800 45.467,188.800 45.744 C 188.800 46.022,189.124 46.598,189.520 47.025 C 189.916 47.451,190.591 48.430,191.020 49.200 C 191.449 49.970,192.025 50.744,192.300 50.920 C 192.575 51.096,192.800 51.467,192.800 51.744 C 192.800 52.022,193.136 52.609,193.546 53.050 C 195.200 54.825,195.200 54.824,195.200 77.402 C 195.200 102.608,195.521 100.673,191.379 100.460 C 190.010 100.389,188.779 100.510,188.645 100.728 C 188.510 100.946,187.703 101.030,186.852 100.916 C 185.973 100.798,185.192 100.890,185.045 101.128 C 184.897 101.366,184.183 101.450,183.393 101.321 C 182.506 101.177,182.000 101.256,182.000 101.538 C 182.000 101.816,181.555 101.891,180.800 101.740 C 180.090 101.598,179.600 101.668,179.600 101.911 C 179.600 102.137,178.520 102.447,177.200 102.600 C 175.880 102.753,174.800 103.051,174.800 103.263 C 174.800 103.474,174.616 103.533,174.390 103.394 C 173.742 102.993,171.600 103.608,171.600 104.194 C 171.600 104.528,171.303 104.647,170.800 104.516 C 170.360 104.401,170.000 104.502,170.000 104.741 C 170.000 104.980,169.748 105.078,169.440 104.960 C 169.133 104.842,168.767 104.930,168.628 105.155 C 168.488 105.381,168.110 105.464,167.787 105.340 C 167.464 105.216,167.200 105.326,167.200 105.584 C 167.200 105.872,166.890 105.956,166.400 105.800 C 165.941 105.654,165.600 105.728,165.600 105.973 C 165.600 106.208,165.144 106.400,164.587 106.400 C 164.031 106.400,163.472 106.669,163.346 106.997 C 163.201 107.375,162.801 107.517,162.258 107.384 C 161.687 107.244,161.040 107.511,160.322 108.183 C 159.657 108.805,158.994 109.096,158.593 108.942 C 158.227 108.802,157.473 109.039,156.871 109.483 C 156.282 109.918,155.128 110.495,154.306 110.766 C 153.485 111.036,152.457 111.710,152.022 112.262 C 151.588 112.815,151.045 113.151,150.816 113.010 C 150.587 112.868,150.400 112.938,150.400 113.164 C 150.400 113.390,150.153 113.480,149.852 113.364 C 149.293 113.150,148.000 114.164,148.000 114.816 C 148.000 115.013,147.730 115.071,147.400 114.945 C 147.010 114.795,146.800 114.955,146.800 115.404 C 146.800 115.889,146.570 116.033,146.026 115.891 C 145.578 115.774,145.162 115.923,145.038 116.244 C 144.921 116.550,144.549 116.800,144.213 116.800 C 143.876 116.800,143.600 117.089,143.600 117.443 C 143.600 117.840,143.378 118.001,143.020 117.863 C 142.677 117.731,142.346 117.939,142.208 118.374 C 142.080 118.777,141.677 119.083,141.311 119.054 C 140.946 119.024,140.455 119.375,140.220 119.832 C 139.986 120.290,139.582 120.594,139.322 120.507 C 139.063 120.421,138.560 120.794,138.204 121.337 C 137.849 121.880,137.127 122.432,136.600 122.564 C 136.073 122.697,135.395 123.299,135.094 123.902 C 134.793 124.506,134.315 124.949,134.031 124.886 C 133.748 124.823,133.272 124.974,132.974 125.221 C 132.227 125.842,101.296 95.003,100.972 93.315 C 100.785 92.339,100.693 91.442,100.454 88.276 C 100.425 87.878,100.220 87.664,100.000 87.800 C 99.777 87.938,99.602 87.638,99.605 87.124 C 99.616 84.995,98.221 76.564,97.785 76.128 C 97.525 75.868,96.313 75.364,95.092 75.010 C 93.871 74.655,92.781 74.127,92.670 73.838 C 92.559 73.549,91.643 73.104,90.634 72.850 C 89.625 72.596,88.800 72.211,88.800 71.994 C 88.800 71.777,88.521 71.600,88.180 71.600 C 87.320 71.600,85.067 70.406,84.680 69.746 C 84.504 69.446,84.067 69.200,83.709 69.200 C 82.721 69.200,80.400 68.285,80.400 67.896 C 80.400 67.707,80.232 67.656,80.028 67.783 C 79.823 67.909,79.545 67.835,79.411 67.617 C 79.276 67.400,78.416 67.020,77.499 66.773 C 76.583 66.526,75.645 66.102,75.416 65.830 C 75.187 65.558,74.190 65.088,73.200 64.785 C 72.210 64.482,71.310 64.116,71.200 63.973 C 70.846 63.510,68.459 62.400,67.820 62.400 C 67.479 62.400,67.200 62.232,67.200 62.027 C 67.200 61.822,66.795 61.536,66.300 61.391 C 64.722 60.931,63.200 60.214,63.200 59.931 C 63.200 59.619,58.797 58.270,58.558 58.508 C 58.271 58.795,59.719 62.596,60.231 62.902 C 60.510 63.069,60.856 63.744,61.001 64.402 C 61.145 65.061,61.440 65.600,61.655 65.600 C 61.871 65.600,61.936 65.780,61.800 66.000 C 61.664 66.220,61.743 66.400,61.976 66.400 C 62.209 66.400,62.400 66.745,62.400 67.168 C 62.400 67.990,63.603 70.512,64.100 70.733 C 64.265 70.807,64.400 71.177,64.400 71.557 C 64.400 71.936,64.664 72.596,64.987 73.024 C 65.310 73.451,65.580 74.115,65.587 74.500 C 65.594 74.885,65.757 75.200,65.948 75.200 C 66.139 75.200,66.524 76.015,66.803 77.011 C 67.082 78.007,67.519 78.952,67.775 79.111 C 68.360 79.474,70.027 83.839,69.705 84.162 C 69.574 84.293,69.686 84.400,69.954 84.400 C 70.395 84.400,71.373 86.231,71.679 87.627 C 71.745 87.932,72.025 88.423,72.300 88.719 C 72.575 89.015,72.800 89.582,72.800 89.980 C 72.800 90.377,73.068 90.924,73.396 91.196 C 73.723 91.468,73.904 91.831,73.798 92.003 C 73.692 92.175,73.874 92.419,74.202 92.546 C 74.531 92.672,74.800 93.209,74.800 93.738 C 74.800 94.268,75.068 94.924,75.396 95.196 C 75.723 95.468,75.893 95.850,75.772 96.045 C 75.651 96.240,75.743 96.400,75.976 96.400 C 76.209 96.400,76.400 96.670,76.400 97.000 C 76.400 97.339,76.758 97.600,77.224 97.600 C 77.677 97.600,77.936 97.780,77.800 98.000 C 77.655 98.235,78.099 98.406,78.876 98.414 C 79.604 98.422,81.370 98.685,82.800 99.000 C 84.230 99.315,86.060 99.578,86.867 99.586 C 87.673 99.594,88.394 99.783,88.469 100.007 C 88.601 100.404,89.857 100.694,92.923 101.033 C 94.918 101.254,126.020 132.012,125.221 132.974 C 124.974 133.272,124.823 133.748,124.886 134.031 C 124.949 134.315,124.506 134.793,123.902 135.094 C 123.299 135.395,122.697 136.073,122.564 136.600 C 122.432 137.127,121.880 137.849,121.337 138.204 C 120.794 138.560,120.421 139.063,120.507 139.322 C 120.594 139.582,120.290 139.986,119.832 140.220 C 119.375 140.455,119.024 140.946,119.054 141.311 C 119.083 141.677,118.777 142.080,118.374 142.208 C 117.939 142.346,117.731 142.677,117.863 143.020 C 118.001 143.378,117.840 143.600,117.443 143.600 C 117.089 143.600,116.800 143.876,116.800 144.213 C 116.800 144.549,116.550 144.921,116.244 145.038 C 115.923 145.162,115.774 145.578,115.891 146.026 C 116.033 146.570,115.889 146.800,115.404 146.800 C 114.955 146.800,114.795 147.010,114.945 147.400 C 115.071 147.730,115.013 148.000,114.816 148.000 C 114.164 148.000,113.150 149.293,113.364 149.852 C 113.480 150.153,113.390 150.400,113.164 150.400 C 112.938 150.400,112.868 150.587,113.010 150.816 C 113.151 151.045,112.815 151.588,112.262 152.022 C 111.710 152.457,111.036 153.485,110.766 154.306 C 110.495 155.128,109.918 156.282,109.483 156.871 C 109.039 157.473,108.802 158.227,108.942 158.593 C 109.096 158.994,108.805 159.657,108.183 160.322 C 107.511 161.040,107.244 161.687,107.384 162.258 C 107.517 162.801,107.375 163.201,106.997 163.346 C 106.669 163.472,106.400 164.031,106.400 164.587 C 106.400 165.144,106.208 165.600,105.973 165.600 C 105.728 165.600,105.654 165.941,105.800 166.400 C 105.956 166.890,105.872 167.200,105.584 167.200 C 105.326 167.200,105.216 167.464,105.340 167.787 C 105.464 168.110,105.381 168.488,105.155 168.628 C 104.930 168.767,104.842 169.133,104.960 169.440 C 105.078 169.748,104.980 170.000,104.741 170.000 C 104.502 170.000,104.401 170.360,104.516 170.800 C 104.647 171.303,104.528 171.600,104.194 171.600 C 103.608 171.600,102.993 173.742,103.394 174.390 C 103.533 174.616,103.474 174.800,103.263 174.800 C 103.051 174.800,102.753 175.880,102.600 177.200 C 102.447 178.520,102.137 179.600,101.911 179.600 C 101.668 179.600,101.598 180.090,101.740 180.800 C 101.891 181.555,101.816 182.000,101.538 182.000 C 101.256 182.000,101.177 182.506,101.321 183.393 C 101.450 184.183,101.366 184.897,101.128 185.045 C 100.890 185.192,100.798 185.973,100.916 186.852 C 101.030 187.703,100.946 188.510,100.728 188.645 C 100.510 188.779,100.389 190.010,100.460 191.379 C 100.673 195.520,102.602 195.200,77.447 195.200 C 56.121 195.200,53.600 195.067,53.600 193.946 C 53.600 193.767,53.015 193.322,52.300 192.956 C 51.585 192.591,50.856 192.046,50.680 191.746 C 50.504 191.446,50.109 191.200,49.803 191.200 C 49.496 191.200,48.994 190.841,48.687 190.403 C 48.380 189.964,48.035 189.698,47.921 189.812 C 47.807 189.926,47.486 189.745,47.208 189.410 C 46.930 189.074,46.463 188.800,46.171 188.800 C 45.879 188.800,45.496 188.561,45.320 188.269 C 45.144 187.977,44.415 187.398,43.700 186.982 C 42.985 186.567,42.400 186.076,42.400 185.890 C 42.400 185.705,42.220 185.664,42.000 185.800 C 41.780 185.936,41.600 185.869,41.600 185.651 C 41.600 184.943,40.118 184.759,38.237 185.232 C 37.227 185.487,36.400 185.831,36.400 185.998 C 36.400 186.165,35.140 186.629,33.600 187.028 C 32.060 187.427,30.800 187.880,30.800 188.033 C 30.800 188.186,29.585 188.638,28.100 189.037 C 26.615 189.436,25.184 189.974,24.920 190.233 C 24.655 190.492,23.755 190.829,22.920 190.981 C 22.084 191.134,21.010 191.510,20.534 191.817 C 20.058 192.123,18.483 192.672,17.034 193.036 C 15.585 193.400,14.400 193.833,14.400 194.000 C 14.400 194.166,13.140 194.629,11.600 195.028 C 10.060 195.427,8.800 195.885,8.800 196.044 C 8.800 196.204,7.540 196.659,6.000 197.056 C 4.460 197.453,3.200 197.910,3.200 198.073 C 3.200 198.236,2.480 198.563,1.600 198.800 C -0.659 199.408,-0.411 200.198,2.300 201.038 C 3.565 201.430,4.690 201.865,4.800 202.006 C 4.910 202.147,6.215 202.606,7.700 203.026 C 9.185 203.446,10.400 203.905,10.400 204.046 C 10.400 204.187,11.651 204.626,13.179 205.023 C 14.708 205.419,15.867 205.891,15.756 206.072 C 15.644 206.252,15.780 206.400,16.057 206.400 C 17.006 206.400,21.200 207.777,21.200 208.089 C 21.200 208.260,21.449 208.400,21.754 208.400 C 22.495 208.400,26.547 209.694,26.800 210.011 C 26.910 210.149,28.215 210.606,29.700 211.026 C 31.185 211.446,32.400 211.905,32.400 212.046 C 32.400 212.187,33.651 212.626,35.179 213.023 C 36.708 213.419,37.881 213.869,37.786 214.023 C 37.691 214.177,38.123 214.405,38.747 214.529 C 39.944 214.769,41.600 214.487,41.600 214.044 C 41.600 213.900,42.275 213.428,43.100 212.995 C 43.925 212.562,44.744 211.981,44.920 211.704 C 45.096 211.427,45.501 211.200,45.820 211.200 C 46.139 211.200,46.400 211.020,46.400 210.800 C 46.400 210.580,46.670 210.400,47.000 210.400 C 47.330 210.400,47.600 210.261,47.600 210.091 C 47.600 209.921,48.275 209.428,49.100 208.995 C 49.925 208.562,50.744 207.981,50.920 207.704 C 51.096 207.427,51.501 207.200,51.820 207.200 C 52.139 207.200,52.400 207.020,52.400 206.800 C 52.400 206.580,52.670 206.400,53.000 206.400 C 53.330 206.400,53.600 206.249,53.600 206.064 C 53.600 204.931,56.078 204.800,77.447 204.800 C 102.602 204.800,100.673 204.480,100.460 208.621 C 100.389 209.990,100.510 211.221,100.728 211.355 C 100.946 211.490,101.030 212.297,100.916 213.148 C 100.798 214.027,100.890 214.808,101.128 214.955 C 101.366 215.103,101.450 215.817,101.321 216.607 C 101.177 217.494,101.256 218.000,101.538 218.000 C 101.816 218.000,101.891 218.445,101.740 219.200 C 101.598 219.910,101.668 220.400,101.911 220.400 C 102.137 220.400,102.447 221.480,102.600 222.800 C 102.753 224.120,102.996 225.201,103.139 225.201 C 103.283 225.202,103.415 225.867,103.433 226.679 C 103.452 227.491,103.677 228.226,103.933 228.311 C 104.190 228.397,104.400 228.812,104.400 229.233 C 104.400 229.655,104.592 230.000,104.827 230.000 C 105.072 230.000,105.146 230.341,105.000 230.800 C 104.858 231.249,104.928 231.600,105.160 231.600 C 105.388 231.600,105.471 231.870,105.345 232.200 C 105.218 232.530,105.326 232.800,105.584 232.800 C 105.872 232.800,105.956 233.110,105.800 233.600 C 105.654 234.059,105.728 234.400,105.973 234.400 C 106.208 234.400,106.400 234.856,106.400 235.413 C 106.400 235.969,106.669 236.528,106.997 236.654 C 107.390 236.805,107.516 237.194,107.366 237.793 C 107.204 238.437,107.437 239.001,108.165 239.729 C 108.782 240.346,109.096 241.005,108.952 241.381 C 108.820 241.725,109.006 242.455,109.365 243.003 C 109.725 243.551,109.879 244.003,109.709 244.006 C 109.539 244.009,109.605 244.144,109.855 244.306 C 110.344 244.622,111.764 247.604,111.662 248.100 C 111.628 248.265,111.979 248.400,112.443 248.400 C 113.028 248.400,113.215 248.584,113.055 249.000 C 112.929 249.330,112.994 249.600,113.200 249.600 C 113.406 249.600,113.480 249.847,113.364 250.148 C 113.155 250.693,114.158 252.000,114.784 252.000 C 114.964 252.000,115.086 252.315,115.056 252.700 C 115.024 253.103,115.234 253.350,115.551 253.283 C 115.923 253.204,116.035 253.424,115.895 253.957 C 115.774 254.422,115.918 254.836,116.244 254.962 C 116.550 255.079,116.800 255.451,116.800 255.787 C 116.800 256.124,117.089 256.400,117.443 256.400 C 117.840 256.400,118.001 256.622,117.863 256.980 C 117.728 257.332,117.951 257.657,118.431 257.810 C 118.868 257.949,119.172 258.350,119.111 258.708 C 119.050 259.064,119.375 259.547,119.832 259.781 C 120.290 260.015,120.594 260.418,120.507 260.678 C 120.421 260.937,120.794 261.440,121.337 261.796 C 121.880 262.151,122.432 262.873,122.564 263.400 C 122.697 263.927,123.299 264.605,123.902 264.906 C 124.506 265.207,124.949 265.685,124.886 265.969 C 124.823 266.252,124.974 266.728,125.221 267.026 C 125.578 267.455,122.450 270.788,110.084 283.157 L 94.497 298.747 92.148 299.166 C 90.857 299.397,89.215 299.627,88.500 299.678 C 87.785 299.729,87.200 299.883,87.200 300.021 C 87.200 300.239,84.602 300.672,78.500 301.469 C 77.565 301.591,76.800 301.850,76.800 302.045 C 76.800 302.240,76.573 302.400,76.296 302.400 C 75.648 302.400,74.977 303.485,74.619 305.113 C 74.464 305.821,74.187 306.400,74.005 306.400 C 73.823 306.400,73.438 307.321,73.150 308.446 C 72.861 309.571,72.394 310.581,72.113 310.689 C 71.831 310.797,71.600 311.216,71.600 311.619 C 71.600 312.023,71.420 312.464,71.200 312.600 C 70.980 312.736,70.800 313.198,70.800 313.628 C 70.800 314.057,70.440 314.716,70.000 315.093 C 69.560 315.470,69.200 316.089,69.200 316.470 C 69.200 317.387,68.360 319.200,67.936 319.200 C 67.751 319.200,67.600 319.549,67.600 319.976 C 67.600 320.403,67.420 320.864,67.200 321.000 C 66.980 321.136,66.800 321.662,66.800 322.170 C 66.800 322.677,66.475 323.521,66.078 324.046 C 65.681 324.571,65.115 325.756,64.821 326.679 C 64.526 327.603,64.041 328.452,63.743 328.567 C 63.444 328.681,63.200 329.041,63.200 329.365 C 63.200 329.690,62.570 331.211,61.800 332.746 C 61.030 334.280,60.400 335.820,60.400 336.168 C 60.400 336.515,60.233 336.800,60.028 336.800 C 59.662 336.800,58.219 341.152,58.494 341.427 C 58.757 341.690,60.400 341.109,60.400 340.753 C 60.400 340.559,60.921 340.400,61.557 340.400 C 62.194 340.400,62.807 340.158,62.921 339.862 C 63.034 339.566,63.954 339.093,64.964 338.810 C 65.974 338.527,66.800 338.147,66.800 337.964 C 66.800 337.782,67.700 337.313,68.800 336.923 C 69.900 336.532,70.800 336.074,70.800 335.906 C 70.800 335.738,71.087 335.600,71.438 335.600 C 72.144 335.600,74.523 334.373,74.733 333.900 C 74.807 333.735,75.201 333.600,75.610 333.600 C 76.018 333.600,76.464 333.420,76.600 333.200 C 76.736 332.980,77.184 332.800,77.595 332.800 C 78.006 332.800,78.581 332.563,78.871 332.274 C 79.162 331.985,80.345 331.410,81.500 330.995 C 82.655 330.581,83.600 330.098,83.600 329.921 C 83.600 329.744,83.915 329.594,84.300 329.587 C 84.685 329.580,85.349 329.310,85.776 328.987 C 86.204 328.664,86.969 328.400,87.476 328.400 C 87.984 328.400,88.400 328.259,88.400 328.086 C 88.400 327.592,90.635 326.400,91.562 326.400 C 92.023 326.400,92.400 326.227,92.400 326.015 C 92.400 325.804,93.112 325.439,93.982 325.205 C 94.852 324.971,95.829 324.514,96.153 324.189 C 96.478 323.865,96.936 323.600,97.171 323.600 C 97.407 323.600,97.600 323.150,97.600 322.600 C 97.600 322.050,97.757 321.600,97.949 321.600 C 98.141 321.600,98.416 320.655,98.560 319.500 C 99.324 313.370,99.656 311.600,100.045 311.600 C 100.240 311.600,100.400 311.050,100.400 310.377 C 100.400 306.301,100.177 306.579,116.887 289.872 C 129.221 277.541,132.545 274.422,132.974 274.779 C 133.272 275.026,133.748 275.177,134.031 275.114 C 134.315 275.051,134.793 275.494,135.094 276.098 C 135.395 276.701,136.073 277.303,136.600 277.436 C 137.127 277.568,137.849 278.120,138.204 278.663 C 138.560 279.206,139.063 279.579,139.322 279.493 C 139.582 279.406,139.986 279.710,140.220 280.168 C 140.455 280.625,140.946 280.976,141.311 280.946 C 141.677 280.917,142.080 281.223,142.208 281.626 C 142.346 282.061,142.677 282.269,143.020 282.137 C 143.378 281.999,143.600 282.160,143.600 282.557 C 143.600 282.933,143.932 283.200,144.400 283.200 C 144.840 283.200,145.200 283.453,145.200 283.763 C 145.200 284.128,145.480 284.252,146.000 284.116 C 146.571 283.966,146.800 284.104,146.800 284.596 C 146.800 285.045,147.010 285.205,147.400 285.055 C 147.730 284.929,148.000 284.987,148.000 285.184 C 148.000 285.836,149.293 286.850,149.852 286.636 C 150.153 286.520,150.400 286.594,150.400 286.800 C 150.400 287.006,150.670 287.071,151.000 286.945 C 151.539 286.738,151.769 287.160,151.500 287.860 C 151.445 288.003,152.480 288.534,153.800 289.040 C 155.120 289.545,156.020 289.975,155.800 289.995 C 155.580 290.015,156.020 290.300,156.777 290.629 C 157.535 290.957,158.400 291.132,158.699 291.017 C 158.999 290.902,159.707 291.270,160.271 291.835 C 160.999 292.563,161.563 292.796,162.207 292.634 C 162.806 292.484,163.195 292.610,163.346 293.003 C 163.472 293.331,164.031 293.600,164.587 293.600 C 165.144 293.600,165.600 293.792,165.600 294.027 C 165.600 294.272,165.941 294.346,166.400 294.200 C 166.890 294.044,167.200 294.128,167.200 294.416 C 167.200 294.674,167.464 294.784,167.787 294.660 C 168.110 294.536,168.488 294.619,168.628 294.845 C 168.767 295.070,169.133 295.158,169.440 295.040 C 169.748 294.922,170.000 294.999,170.000 295.213 C 170.000 295.426,170.345 295.600,170.767 295.600 C 171.188 295.600,171.603 295.810,171.689 296.067 C 171.774 296.323,172.509 296.548,173.321 296.567 C 174.133 296.585,174.798 296.726,174.799 296.880 C 174.799 297.034,175.880 297.282,177.200 297.432 C 178.520 297.581,179.600 297.883,179.600 298.102 C 179.600 298.331,180.109 298.398,180.800 298.260 C 181.555 298.109,182.000 298.184,182.000 298.462 C 182.000 298.744,182.506 298.823,183.393 298.679 C 184.183 298.550,184.897 298.634,185.045 298.872 C 185.192 299.110,185.973 299.202,186.852 299.084 C 187.703 298.970,188.501 299.039,188.624 299.238 C 188.747 299.437,190.019 299.600,191.452 299.600 C 195.524 299.600,195.200 297.613,195.200 322.553 C 195.200 343.879,195.067 346.400,193.946 346.400 C 193.767 346.400,193.322 346.985,192.956 347.700 C 192.591 348.415,192.046 349.144,191.746 349.320 C 191.446 349.496,191.200 349.863,191.200 350.135 C 191.200 350.407,190.667 351.253,190.016 352.015 C 189.365 352.777,188.825 353.616,188.816 353.880 C 188.807 354.144,188.549 354.504,188.242 354.680 C 187.935 354.856,187.286 355.765,186.801 356.700 C 186.316 357.635,185.770 358.400,185.587 358.400 C 184.939 358.400,184.776 359.949,185.232 361.763 C 185.487 362.773,185.831 363.600,185.998 363.600 C 186.165 363.600,186.629 364.860,187.028 366.400 C 187.427 367.940,187.880 369.200,188.033 369.200 C 188.186 369.200,188.635 370.415,189.031 371.900 C 189.427 373.385,189.906 374.706,190.095 374.835 C 190.383 375.033,190.916 376.661,191.652 379.590 C 191.733 379.915,191.992 380.390,192.226 380.645 C 192.461 380.901,192.879 382.120,193.155 383.355 C 193.431 384.590,193.802 385.600,193.980 385.600 C 194.157 385.600,194.629 386.860,195.028 388.400 C 195.427 389.940,195.885 391.200,196.044 391.200 C 196.204 391.200,196.659 392.460,197.056 394.000 C 197.453 395.540,197.910 396.800,198.073 396.800 C 198.236 396.800,198.563 397.520,198.800 398.400 C 199.408 400.659,200.198 400.411,201.038 397.700 C 201.430 396.435,201.860 395.310,201.994 395.200 C 202.129 395.090,202.581 393.830,203.000 392.400 C 203.419 390.970,203.884 389.710,204.034 389.600 C 204.185 389.490,204.622 388.275,205.006 386.900 C 205.391 385.525,205.862 384.400,206.053 384.400 C 206.244 384.400,206.399 384.085,206.398 383.700 C 206.395 382.783,207.714 379.038,208.100 378.867 C 208.265 378.793,208.400 378.499,208.400 378.213 C 208.400 377.517,209.697 373.453,209.999 373.200 C 210.131 373.090,210.581 371.830,211.000 370.400 C 211.419 368.970,211.881 367.710,212.028 367.600 C 212.174 367.490,212.606 366.320,212.987 365.000 C 213.368 363.680,213.816 362.510,213.982 362.400 C 214.608 361.986,214.834 359.291,214.288 358.739 C 213.995 358.443,213.405 357.570,212.978 356.800 C 212.550 356.030,211.975 355.256,211.700 355.080 C 211.425 354.904,211.200 354.533,211.200 354.256 C 211.200 353.978,210.876 353.402,210.480 352.975 C 210.084 352.549,209.409 351.570,208.980 350.800 C 208.551 350.030,207.975 349.256,207.700 349.080 C 207.425 348.904,207.200 348.533,207.200 348.256 C 207.200 347.978,206.864 347.391,206.454 346.950 C 204.800 345.175,204.800 345.176,204.800 322.598 C 204.800 297.460,204.476 299.425,208.597 299.558 C 209.989 299.603,211.234 299.468,211.364 299.258 C 211.494 299.048,212.297 298.970,213.148 299.084 C 214.027 299.202,214.808 299.110,214.955 298.872 C 215.103 298.634,215.817 298.550,216.607 298.679 C 217.494 298.823,218.000 298.744,218.000 298.462 C 218.000 298.184,218.445 298.109,219.200 298.260 C 219.891 298.398,220.400 298.331,220.400 298.102 C 220.400 297.883,221.480 297.581,222.800 297.432 C 224.120 297.282,225.201 297.034,225.201 296.880 C 225.202 296.726,225.867 296.585,226.679 296.567 C 227.491 296.548,228.226 296.323,228.311 296.067 C 228.397 295.810,228.812 295.600,229.233 295.600 C 229.655 295.600,230.000 295.408,230.000 295.173 C 230.000 294.928,230.341 294.854,230.800 295.000 C 231.249 295.142,231.600 295.072,231.600 294.840 C 231.600 294.612,231.870 294.529,232.200 294.655 C 232.530 294.782,232.800 294.674,232.800 294.416 C 232.800 294.128,233.110 294.044,233.600 294.200 C 234.059 294.346,234.400 294.272,234.400 294.027 C 234.400 293.792,234.856 293.600,235.413 293.600 C 235.969 293.600,236.517 293.360,236.630 293.067 C 236.742 292.773,237.365 292.533,238.012 292.533 C 238.738 292.533,239.492 292.186,239.974 291.630 C 240.405 291.133,240.948 290.844,241.181 290.988 C 241.652 291.279,244.400 290.401,244.400 289.960 C 244.400 289.806,245.300 289.357,246.400 288.961 C 247.851 288.440,248.400 288.032,248.400 287.478 C 248.400 286.964,248.596 286.790,249.000 286.945 C 249.330 287.071,249.600 287.001,249.600 286.787 C 249.600 286.574,249.735 286.421,249.900 286.447 C 250.888 286.603,251.577 286.303,251.794 285.620 C 251.930 285.190,252.277 284.932,252.569 285.043 C 252.859 285.155,253.212 284.947,253.352 284.581 C 253.492 284.216,253.860 284.014,254.170 284.133 C 254.480 284.252,254.833 284.091,254.954 283.775 C 255.076 283.459,255.451 283.200,255.787 283.200 C 256.124 283.200,256.400 282.911,256.400 282.557 C 256.400 282.160,256.622 281.999,256.980 282.137 C 257.334 282.273,257.659 282.045,257.816 281.551 C 257.970 281.065,258.299 280.829,258.640 280.960 C 258.952 281.080,259.429 280.823,259.700 280.389 C 259.971 279.955,260.415 279.600,260.687 279.600 C 260.959 279.600,261.465 279.167,261.812 278.638 C 262.158 278.109,262.838 277.574,263.321 277.449 C 263.804 277.324,264.513 276.666,264.896 275.985 C 265.279 275.305,265.782 274.865,266.014 275.009 C 266.245 275.152,266.690 275.058,267.001 274.799 C 267.463 274.416,270.429 277.191,283.186 289.945 L 298.804 305.560 299.274 308.580 C 299.532 310.241,299.913 311.600,300.121 311.600 C 300.328 311.600,300.274 311.870,300.000 312.200 C 299.726 312.530,299.675 312.800,299.887 312.800 C 300.223 312.800,300.613 314.944,301.469 321.500 C 301.591 322.435,301.850 323.200,302.045 323.200 C 302.240 323.200,302.400 323.427,302.400 323.704 C 302.400 324.352,303.485 325.023,305.113 325.381 C 305.821 325.536,306.400 325.813,306.400 325.995 C 306.400 326.177,307.321 326.562,308.446 326.850 C 309.571 327.139,310.581 327.606,310.689 327.887 C 310.797 328.169,311.216 328.400,311.619 328.400 C 312.023 328.400,312.464 328.580,312.600 328.800 C 312.736 329.020,313.184 329.200,313.595 329.200 C 314.006 329.200,314.659 329.515,315.044 329.900 C 315.430 330.285,315.938 330.604,316.173 330.609 C 316.956 330.625,319.200 331.692,319.200 332.049 C 319.200 332.242,319.472 332.400,319.805 332.400 C 320.138 332.400,320.723 332.569,321.105 332.776 C 321.487 332.983,322.302 333.258,322.916 333.388 C 323.530 333.517,323.944 333.767,323.836 333.942 C 323.728 334.117,324.697 334.577,325.990 334.964 C 327.283 335.352,328.438 335.923,328.558 336.234 C 328.677 336.545,329.096 336.806,329.487 336.814 C 330.295 336.830,332.415 337.942,331.800 338.027 C 331.580 338.057,331.940 338.233,332.600 338.418 C 334.980 339.086,336.800 339.801,336.800 340.069 C 336.800 340.416,341.217 341.716,341.485 341.449 C 341.594 341.339,341.395 340.671,341.042 339.963 C 340.689 339.256,340.400 338.364,340.400 337.981 C 340.400 337.599,340.158 337.193,339.862 337.079 C 339.566 336.966,339.093 336.046,338.810 335.036 C 338.527 334.026,338.147 333.200,337.964 333.200 C 337.782 333.200,337.313 332.300,336.923 331.200 C 336.532 330.100,336.074 329.200,335.906 329.200 C 335.738 329.200,335.600 328.913,335.600 328.562 C 335.600 327.856,334.373 325.477,333.900 325.267 C 333.735 325.193,333.600 324.799,333.600 324.390 C 333.600 323.982,333.420 323.536,333.200 323.400 C 332.980 323.264,332.800 322.722,332.800 322.196 C 332.800 321.670,332.556 321.096,332.258 320.920 C 331.959 320.744,331.405 319.655,331.025 318.500 C 330.646 317.345,330.170 316.400,329.968 316.400 C 329.766 316.400,329.600 316.151,329.600 315.846 C 329.600 315.541,329.331 314.776,329.002 314.146 C 328.674 313.516,328.404 312.655,328.402 312.233 C 328.401 311.812,328.277 311.590,328.127 311.740 C 327.799 312.067,326.433 309.305,326.414 308.276 C 326.406 307.878,326.239 307.652,326.043 307.774 C 325.846 307.895,325.570 307.501,325.429 306.897 C 324.981 304.979,324.319 303.603,323.954 303.829 C 323.759 303.949,323.600 303.677,323.600 303.224 C 323.600 302.612,323.343 302.400,322.600 302.400 C 322.050 302.400,321.600 302.245,321.600 302.056 C 321.600 301.755,319.916 301.421,316.400 301.023 C 313.451 300.689,311.600 300.266,311.600 299.926 C 311.600 299.715,311.195 299.590,310.700 299.648 C 306.901 300.093,306.648 299.892,289.883 283.124 C 277.180 270.418,274.416 267.463,274.799 267.001 C 275.058 266.690,275.165 266.267,275.038 266.062 C 274.912 265.857,275.436 265.210,276.204 264.624 C 276.972 264.038,277.600 263.319,277.600 263.026 C 277.600 262.732,278.050 262.197,278.600 261.837 C 279.150 261.476,279.600 260.959,279.600 260.687 C 279.600 260.415,279.975 259.958,280.433 259.672 C 280.892 259.386,281.171 258.902,281.054 258.596 C 280.931 258.276,281.162 257.939,281.600 257.800 C 282.018 257.667,282.268 257.321,282.157 257.031 C 282.045 256.741,282.234 256.396,282.577 256.264 C 282.920 256.133,283.200 255.749,283.200 255.413 C 283.200 255.076,283.464 254.800,283.787 254.800 C 284.144 254.800,284.285 254.565,284.146 254.203 C 284.013 253.858,284.197 253.499,284.581 253.352 C 284.947 253.212,285.155 252.859,285.043 252.569 C 284.932 252.277,285.190 251.930,285.620 251.794 C 286.303 251.577,286.603 250.888,286.447 249.900 C 286.421 249.735,286.574 249.600,286.787 249.600 C 287.001 249.600,287.071 249.330,286.945 249.000 C 286.789 248.593,286.965 248.400,287.494 248.400 C 288.055 248.400,288.406 247.957,288.747 246.818 C 289.008 245.948,289.454 245.003,289.738 244.718 C 290.425 244.028,291.250 241.605,290.958 241.133 C 290.831 240.926,291.133 240.405,291.630 239.974 C 292.186 239.492,292.533 238.738,292.533 238.012 C 292.533 237.365,292.773 236.742,293.067 236.630 C 293.360 236.517,293.600 235.969,293.600 235.413 C 293.600 234.856,293.792 234.400,294.027 234.400 C 294.272 234.400,294.346 234.059,294.200 233.600 C 294.044 233.110,294.128 232.800,294.416 232.800 C 294.674 232.800,294.782 232.530,294.655 232.200 C 294.529 231.870,294.620 231.600,294.859 231.600 C 295.098 231.600,295.199 231.240,295.084 230.800 C 294.969 230.360,295.038 230.000,295.237 230.000 C 295.437 230.000,295.600 229.655,295.600 229.233 C 295.600 228.812,295.810 228.397,296.067 228.311 C 296.323 228.226,296.548 227.491,296.567 226.679 C 296.585 225.867,296.726 225.202,296.880 225.201 C 297.034 225.201,297.282 224.120,297.432 222.800 C 297.581 221.480,297.883 220.400,298.102 220.400 C 298.331 220.400,298.398 219.891,298.260 219.200 C 298.109 218.445,298.184 218.000,298.462 218.000 C 298.744 218.000,298.823 217.494,298.679 216.607 C 298.554 215.841,298.633 215.103,298.854 214.967 C 299.075 214.830,299.208 214.057,299.149 213.248 C 299.091 212.439,299.178 211.560,299.343 211.293 C 299.507 211.026,299.604 209.742,299.557 208.440 C 299.415 204.504,297.546 204.800,322.553 204.800 C 343.949 204.800,346.400 204.931,346.400 206.071 C 346.400 206.259,347.030 206.713,347.800 207.081 C 348.570 207.448,349.200 207.886,349.200 208.055 C 349.200 208.224,349.836 208.664,350.614 209.034 C 351.392 209.403,351.929 209.805,351.806 209.927 C 351.684 210.049,352.308 210.481,353.192 210.886 C 354.076 211.292,354.800 211.769,354.800 211.947 C 354.800 212.125,355.504 212.614,356.364 213.032 C 357.224 213.450,357.857 213.909,357.769 214.050 C 357.682 214.191,358.119 214.518,358.741 214.776 C 359.911 215.260,363.600 214.672,363.600 214.002 C 363.600 213.835,364.860 213.371,366.400 212.972 C 367.940 212.573,369.200 212.120,369.200 211.967 C 369.200 211.814,370.415 211.362,371.900 210.963 C 373.385 210.564,374.804 210.038,375.054 209.794 C 375.303 209.550,376.563 209.099,377.854 208.793 C 379.144 208.486,380.405 208.036,380.655 207.792 C 380.905 207.547,382.120 207.121,383.355 206.845 C 384.590 206.569,385.600 206.198,385.600 206.020 C 385.600 205.843,386.860 205.371,388.400 204.972 C 389.940 204.573,391.200 204.115,391.200 203.956 C 391.200 203.796,392.460 203.341,394.000 202.944 C 395.540 202.547,396.800 202.090,396.800 201.927 C 396.800 201.764,397.520 201.437,398.400 201.200 C 400.659 200.592,400.411 199.802,397.700 198.962 C 396.435 198.570,395.310 198.140,395.200 198.006 C 395.090 197.871,393.830 197.419,392.400 197.000 C 390.970 196.581,389.710 196.116,389.600 195.966 C 389.490 195.815,388.275 195.378,386.900 194.994 C 385.525 194.609,384.400 194.138,384.400 193.947 C 384.400 193.756,384.265 193.634,384.100 193.677 C 383.558 193.815,378.800 192.230,378.800 191.911 C 378.800 191.740,378.551 191.600,378.246 191.600 C 377.526 191.600,373.460 190.311,373.200 190.001 C 373.090 189.869,371.830 189.419,370.400 189.000 C 368.970 188.581,367.710 188.116,367.600 187.966 C 367.490 187.815,366.275 187.378,364.900 186.994 C 363.525 186.609,362.400 186.168,362.400 186.014 C 362.400 185.860,362.175 185.711,361.900 185.683 C 361.625 185.655,360.933 185.519,360.363 185.382 C 359.714 185.225,359.116 185.339,358.763 185.688 C 358.453 185.994,357.570 186.595,356.800 187.022 C 356.030 187.450,355.256 188.025,355.080 188.300 C 354.904 188.575,354.533 188.800,354.256 188.800 C 353.978 188.800,353.402 189.124,352.975 189.520 C 352.549 189.916,351.570 190.591,350.800 191.020 C 350.030 191.449,349.256 192.025,349.080 192.300 C 348.904 192.575,348.533 192.800,348.256 192.800 C 347.978 192.800,347.391 193.136,346.950 193.546 C 345.175 195.200,345.176 195.200,322.598 195.200 C 297.630 195.200,299.600 195.517,299.600 191.495 C 299.600 190.086,299.472 188.806,299.316 188.650 C 299.160 188.494,299.083 187.672,299.144 186.824 C 299.205 185.975,299.075 185.170,298.854 185.033 C 298.633 184.897,298.554 184.159,298.679 183.393 C 298.823 182.506,298.744 182.000,298.462 182.000 C 298.184 182.000,298.109 181.555,298.260 180.800 C 298.398 180.109,298.331 179.600,298.102 179.600 C 297.883 179.600,297.581 178.520,297.432 177.200 C 297.282 175.880,297.034 174.799,296.880 174.799 C 296.726 174.798,296.585 174.133,296.567 173.321 C 296.548 172.509,296.323 171.774,296.067 171.689 C 295.810 171.603,295.600 171.188,295.600 170.767 C 295.600 170.345,295.437 170.000,295.237 170.000 C 295.038 170.000,294.969 169.640,295.084 169.200 C 295.199 168.760,295.098 168.400,294.859 168.400 C 294.620 168.400,294.529 168.130,294.655 167.800 C 294.782 167.470,294.674 167.200,294.416 167.200 C 294.128 167.200,294.044 166.890,294.200 166.400 C 294.346 165.941,294.272 165.600,294.027 165.600 C 293.792 165.600,293.600 165.144,293.600 164.587 C 293.600 164.031,293.331 163.472,293.003 163.346 C 292.610 163.195,292.484 162.806,292.634 162.207 C 292.796 161.560,292.560 160.996,291.809 160.246 C 291.231 159.667,290.854 159.036,290.974 158.843 C 291.093 158.650,290.935 157.797,290.623 156.946 C 290.311 156.096,290.031 155.580,290.000 155.800 C 289.969 156.020,289.526 155.120,289.016 153.800 C 288.506 152.480,287.978 151.445,287.844 151.500 C 287.172 151.775,286.739 151.535,286.945 151.000 C 287.071 150.670,287.006 150.400,286.800 150.400 C 286.594 150.400,286.520 150.153,286.636 149.852 C 286.850 149.293,285.836 148.000,285.184 148.000 C 284.987 148.000,284.929 147.730,285.055 147.400 C 285.205 147.010,285.045 146.800,284.596 146.800 C 284.104 146.800,283.966 146.571,284.116 146.000 C 284.252 145.480,284.128 145.200,283.763 145.200 C 283.453 145.200,283.200 144.924,283.200 144.587 C 283.200 144.251,282.920 143.867,282.577 143.736 C 282.234 143.604,282.045 143.259,282.157 142.969 C 282.268 142.679,282.029 142.336,281.626 142.208 C 281.223 142.080,280.917 141.677,280.946 141.311 C 280.976 140.946,280.625 140.455,280.168 140.220 C 279.710 139.986,279.407 139.579,279.494 139.317 C 279.582 139.055,279.271 138.606,278.804 138.320 C 278.337 138.034,277.694 137.258,277.376 136.595 C 277.059 135.932,276.414 135.212,275.945 134.995 C 275.475 134.778,275.098 134.420,275.106 134.200 C 275.114 133.980,274.952 133.484,274.745 133.097 C 274.431 132.511,276.953 129.809,289.932 116.827 L 305.496 101.260 307.822 100.830 C 309.101 100.593,310.744 100.400,311.473 100.400 C 312.203 100.400,312.800 100.250,312.800 100.066 C 312.800 99.694,316.916 98.943,320.592 98.644 C 321.907 98.537,323.047 98.258,323.125 98.025 C 323.203 97.791,323.522 97.600,323.833 97.600 C 324.145 97.600,324.400 97.330,324.400 97.000 C 324.400 96.670,324.560 96.400,324.755 96.400 C 324.951 96.400,325.229 95.770,325.374 95.000 C 325.518 94.230,325.791 93.600,325.981 93.600 C 326.171 93.600,326.562 92.679,326.850 91.554 C 327.139 90.429,327.606 89.419,327.887 89.311 C 328.169 89.203,328.400 88.784,328.400 88.381 C 328.400 87.977,328.580 87.536,328.800 87.400 C 329.020 87.264,329.200 86.802,329.200 86.372 C 329.200 85.943,329.560 85.284,330.000 84.907 C 330.440 84.530,330.800 83.911,330.800 83.530 C 330.800 82.613,331.640 80.800,332.064 80.800 C 332.249 80.800,332.400 80.451,332.400 80.024 C 332.400 79.597,332.580 79.136,332.800 79.000 C 333.020 78.864,333.200 78.322,333.200 77.796 C 333.200 77.270,333.443 76.696,333.740 76.520 C 334.037 76.344,334.598 75.176,334.987 73.925 C 335.376 72.673,335.943 71.554,336.247 71.437 C 336.551 71.321,336.800 70.859,336.800 70.413 C 336.800 69.966,337.134 69.266,337.542 68.858 C 337.951 68.449,338.390 67.684,338.518 67.158 C 338.963 65.328,339.797 63.200,340.069 63.200 C 340.410 63.200,341.719 58.785,341.456 58.523 C 341.351 58.418,340.665 58.609,339.932 58.947 C 339.200 59.286,338.331 59.617,338.001 59.682 C 337.672 59.747,337.222 60.005,337.001 60.256 C 336.781 60.507,335.885 60.939,335.011 61.216 C 334.137 61.494,333.184 61.959,332.893 62.250 C 332.602 62.541,331.652 62.992,330.782 63.253 C 329.912 63.513,329.200 63.878,329.200 64.063 C 329.200 64.248,328.913 64.400,328.562 64.400 C 327.856 64.400,325.477 65.627,325.267 66.100 C 325.193 66.265,324.799 66.400,324.390 66.400 C 323.982 66.400,323.536 66.580,323.400 66.800 C 323.264 67.020,322.722 67.200,322.196 67.200 C 321.670 67.200,321.096 67.444,320.920 67.742 C 320.744 68.041,319.655 68.595,318.500 68.975 C 317.345 69.354,316.400 69.830,316.400 70.032 C 316.400 70.234,316.160 70.400,315.867 70.400 C 315.574 70.400,313.369 71.388,310.967 72.595 C 308.565 73.803,306.283 74.793,305.896 74.795 C 305.509 74.798,304.884 75.160,304.507 75.600 C 304.130 76.040,303.502 76.400,303.111 76.400 C 302.619 76.400,302.400 76.708,302.400 77.400 C 302.400 77.950,302.245 78.400,302.056 78.400 C 301.755 78.400,301.421 80.084,301.023 83.600 C 300.697 86.485,300.270 88.400,299.955 88.400 C 299.760 88.400,299.600 88.670,299.600 89.000 C 299.600 89.330,299.766 89.600,299.969 89.600 C 300.172 89.600,300.084 90.110,299.773 90.733 C 299.462 91.357,299.148 92.415,299.074 93.085 C 298.858 95.061,266.800 126.943,266.800 125.182 C 266.800 124.953,266.492 124.818,266.116 124.882 C 265.697 124.954,265.224 124.574,264.895 123.902 C 264.600 123.299,263.927 122.697,263.400 122.564 C 262.873 122.432,262.151 121.880,261.796 121.337 C 261.440 120.794,260.937 120.421,260.678 120.507 C 260.418 120.594,260.015 120.290,259.781 119.832 C 259.547 119.375,259.064 119.050,258.708 119.111 C 258.350 119.172,257.949 118.868,257.810 118.431 C 257.657 117.951,257.332 117.728,256.980 117.863 C 256.622 118.001,256.400 117.840,256.400 117.443 C 256.400 117.089,256.124 116.800,255.787 116.800 C 255.451 116.800,255.079 116.550,254.962 116.244 C 254.836 115.918,254.422 115.774,253.957 115.895 C 253.424 116.035,253.204 115.923,253.283 115.551 C 253.350 115.234,253.103 115.024,252.700 115.056 C 252.315 115.086,252.000 114.964,252.000 114.784 C 252.000 114.158,250.693 113.155,250.148 113.364 C 249.847 113.480,249.600 113.406,249.600 113.200 C 249.600 112.994,249.330 112.929,249.000 113.055 C 248.584 113.215,248.400 113.028,248.400 112.443 C 248.400 111.979,248.265 111.628,248.100 111.662 C 247.604 111.764,244.622 110.344,244.306 109.855 C 244.144 109.605,244.009 109.539,244.006 109.709 C 244.003 109.879,243.551 109.725,243.003 109.365 C 242.455 109.006,241.725 108.820,241.381 108.952 C 241.005 109.096,240.346 108.782,239.729 108.165 C 239.001 107.437,238.437 107.204,237.793 107.366 C 237.194 107.516,236.805 107.390,236.654 106.997 C 236.528 106.669,235.969 106.400,235.413 106.400 C 234.856 106.400,234.400 106.208,234.400 105.973 C 234.400 105.728,234.059 105.654,233.600 105.800 C 233.110 105.956,232.800 105.872,232.800 105.584 C 232.800 105.326,232.530 105.218,232.200 105.345 C 231.870 105.471,231.600 105.388,231.600 105.160 C 231.600 104.928,231.249 104.858,230.800 105.000 C 230.341 105.146,230.000 105.072,230.000 104.827 C 230.000 104.592,229.655 104.400,229.233 104.400 C 228.812 104.400,228.397 104.190,228.311 103.933 C 228.226 103.677,227.491 103.452,226.679 103.433 C 225.867 103.415,225.202 103.283,225.201 103.139 C 225.201 102.996,224.120 102.753,222.800 102.600 C 221.480 102.447,220.400 102.137,220.400 101.911 C 220.400 101.668,219.910 101.598,219.200 101.740 C 218.445 101.891,218.000 101.816,218.000 101.538 C 218.000 101.256,217.494 101.177,216.607 101.321 C 215.817 101.450,215.103 101.366,214.955 101.128 C 214.808 100.890,214.027 100.798,213.148 100.916 C 212.297 101.030,211.490 100.946,211.355 100.728 C 211.221 100.510,209.990 100.389,208.621 100.460 C 204.480 100.673,204.800 102.602,204.800 77.447 C 204.800 56.121,204.933 53.600,206.054 53.600 C 206.233 53.600,206.678 53.015,207.044 52.300 C 207.409 51.585,207.954 50.856,208.254 50.680 C 208.554 50.504,208.800 50.109,208.800 49.803 C 208.800 49.496,209.123 49.010,209.518 48.723 C 209.913 48.435,210.552 47.525,210.937 46.700 C 211.322 45.875,211.768 45.200,211.928 45.200 C 212.087 45.200,212.557 44.570,212.972 43.800 C 213.387 43.030,213.856 42.400,214.014 42.400 C 214.173 42.400,214.515 41.889,214.773 41.264 C 215.260 40.090,214.674 36.400,214.002 36.400 C 213.835 36.400,213.371 35.140,212.972 33.600 C 212.573 32.060,212.120 30.800,211.967 30.800 C 211.814 30.800,211.362 29.585,210.963 28.100 C 210.564 26.615,210.032 25.190,209.780 24.933 C 209.529 24.676,209.092 23.375,208.809 22.042 C 208.526 20.709,208.157 19.703,207.990 19.806 C 207.822 19.910,207.376 18.736,206.999 17.197 C 206.622 15.659,206.175 14.400,206.006 14.400 C 205.837 14.400,205.371 13.140,204.972 11.600 C 204.573 10.060,204.115 8.800,203.956 8.800 C 203.796 8.800,203.341 7.540,202.944 6.000 C 202.547 4.460,202.090 3.200,201.927 3.200 C 201.764 3.200,201.437 2.480,201.200 1.600 C 200.592 -0.659,199.802 -0.411,198.962 2.300 M209.289 125.460 C 210.767 125.599,211.882 125.868,211.765 126.057 C 211.648 126.246,212.058 126.400,212.676 126.400 C 214.190 126.399,220.549 127.662,220.800 128.013 C 220.910 128.166,222.305 128.626,223.900 129.035 C 225.495 129.443,226.800 129.905,226.800 130.060 C 226.800 130.216,227.790 130.631,229.000 130.983 C 230.210 131.335,231.200 131.769,231.200 131.948 C 231.200 132.127,231.912 132.487,232.782 132.747 C 233.652 133.008,234.597 133.449,234.882 133.728 C 235.167 134.006,236.030 134.479,236.800 134.779 C 237.570 135.078,238.380 135.537,238.600 135.797 C 238.820 136.058,239.720 136.607,240.600 137.017 C 241.480 137.428,242.435 138.087,242.723 138.482 C 243.010 138.877,243.499 139.200,243.809 139.200 C 244.118 139.200,244.565 139.560,244.800 140.000 C 245.035 140.440,245.490 140.800,245.811 140.800 C 246.131 140.800,246.620 141.170,246.897 141.623 C 247.173 142.075,247.991 142.729,248.714 143.075 C 249.437 143.421,249.935 143.799,249.820 143.914 C 249.705 144.029,250.183 144.545,250.883 145.061 C 251.583 145.578,251.995 146.000,251.800 146.000 C 251.605 146.000,252.055 146.450,252.800 147.000 C 253.545 147.550,253.995 148.000,253.800 148.000 C 253.605 148.000,254.055 148.450,254.800 149.000 C 255.545 149.550,255.990 150.000,255.789 150.000 C 255.587 150.000,255.822 150.280,256.311 150.623 C 256.800 150.965,257.200 151.484,257.200 151.777 C 257.200 152.069,257.650 152.603,258.200 152.963 C 258.750 153.324,259.200 153.878,259.200 154.195 C 259.200 154.512,259.560 154.965,260.000 155.200 C 260.440 155.435,260.800 155.882,260.800 156.191 C 260.800 156.501,261.123 156.990,261.518 157.277 C 261.913 157.565,262.572 158.520,262.983 159.400 C 263.393 160.280,263.942 161.180,264.203 161.400 C 264.463 161.620,264.923 162.430,265.223 163.200 C 265.524 163.970,266.075 164.931,266.447 165.335 C 266.819 165.739,267.239 166.684,267.380 167.435 C 267.521 168.186,267.803 168.800,268.007 168.800 C 268.211 168.800,268.665 169.790,269.017 171.000 C 269.369 172.210,269.789 173.200,269.951 173.200 C 270.113 173.200,270.580 174.505,270.990 176.100 C 271.399 177.695,271.855 179.090,272.004 179.200 C 272.233 179.369,273.540 185.701,273.737 187.600 C 273.772 187.930,273.980 188.328,274.200 188.485 C 274.772 188.894,274.739 211.297,274.166 212.039 C 273.927 212.347,273.402 214.445,272.999 216.700 C 272.596 218.955,272.146 220.800,272.000 220.800 C 271.854 220.800,271.398 222.150,270.987 223.800 C 270.576 225.450,270.109 226.800,269.948 226.800 C 269.788 226.800,269.369 227.790,269.017 229.000 C 268.665 230.210,268.231 231.200,268.052 231.200 C 267.873 231.200,267.513 231.912,267.253 232.782 C 266.992 233.652,266.551 234.597,266.272 234.882 C 265.994 235.167,265.521 236.030,265.221 236.800 C 264.922 237.570,264.463 238.380,264.203 238.600 C 263.942 238.820,263.393 239.720,262.983 240.600 C 262.572 241.480,261.913 242.435,261.518 242.723 C 261.123 243.010,260.800 243.499,260.800 243.809 C 260.800 244.118,260.440 244.565,260.000 244.800 C 259.560 245.035,259.200 245.488,259.200 245.805 C 259.200 246.122,258.750 246.676,258.200 247.037 C 257.650 247.397,257.200 247.931,257.200 248.223 C 257.200 248.915,248.915 257.200,248.223 257.200 C 247.931 257.200,247.397 257.650,247.037 258.200 C 246.676 258.750,246.122 259.200,245.805 259.200 C 245.488 259.200,245.035 259.560,244.800 260.000 C 244.565 260.440,244.118 260.800,243.809 260.800 C 243.499 260.800,243.010 261.123,242.723 261.518 C 242.435 261.913,241.480 262.572,240.600 262.983 C 239.720 263.393,238.820 263.942,238.600 264.203 C 238.380 264.463,237.570 264.922,236.800 265.221 C 236.030 265.521,235.167 265.994,234.882 266.272 C 234.597 266.551,233.652 266.992,232.782 267.253 C 231.912 267.513,231.200 267.873,231.200 268.052 C 231.200 268.231,230.210 268.665,229.000 269.017 C 227.790 269.369,226.800 269.788,226.800 269.948 C 226.800 270.109,225.450 270.576,223.800 270.987 C 222.150 271.398,220.800 271.854,220.800 272.000 C 220.800 272.146,218.955 272.596,216.700 272.999 C 214.445 273.402,212.347 273.927,212.039 274.166 C 211.297 274.739,188.894 274.772,188.485 274.200 C 188.328 273.980,187.930 273.770,187.600 273.734 C 185.392 273.489,179.200 272.206,179.200 271.994 C 179.200 271.851,177.850 271.398,176.200 270.987 C 174.550 270.576,173.200 270.109,173.200 269.948 C 173.200 269.788,172.210 269.369,171.000 269.017 C 169.790 268.665,168.800 268.231,168.800 268.052 C 168.800 267.873,168.088 267.513,167.218 267.253 C 166.348 266.992,165.403 266.551,165.118 266.272 C 164.833 265.994,163.970 265.521,163.200 265.221 C 162.430 264.922,161.620 264.463,161.400 264.203 C 161.180 263.942,160.280 263.393,159.400 262.983 C 158.520 262.572,157.565 261.913,157.277 261.518 C 156.990 261.123,156.501 260.800,156.191 260.800 C 155.882 260.800,155.435 260.440,155.200 260.000 C 154.965 259.560,154.512 259.200,154.195 259.200 C 153.878 259.200,153.324 258.750,152.963 258.200 C 152.603 257.650,152.069 257.200,151.777 257.200 C 151.484 257.200,150.965 256.800,150.623 256.311 C 150.280 255.822,150.000 255.587,150.000 255.789 C 150.000 255.990,149.550 255.545,149.000 254.800 C 148.450 254.055,148.000 253.605,148.000 253.800 C 148.000 253.995,147.550 253.545,147.000 252.800 C 146.450 252.055,146.000 251.605,146.000 251.800 C 146.000 251.995,145.578 251.583,145.061 250.883 C 144.545 250.183,144.029 249.705,143.914 249.820 C 143.799 249.935,143.421 249.437,143.075 248.714 C 142.729 247.991,142.075 247.173,141.623 246.897 C 141.170 246.620,140.800 246.131,140.800 245.811 C 140.800 245.490,140.440 245.035,140.000 244.800 C 139.560 244.565,139.200 244.118,139.200 243.809 C 139.200 243.499,138.877 243.010,138.482 242.723 C 138.087 242.435,137.428 241.480,137.017 240.600 C 136.607 239.720,136.058 238.820,135.797 238.600 C 135.537 238.380,135.078 237.570,134.779 236.800 C 134.479 236.030,134.006 235.167,133.728 234.882 C 133.449 234.597,133.008 233.652,132.747 232.782 C 132.487 231.912,132.127 231.200,131.948 231.200 C 131.769 231.200,131.335 230.210,130.983 229.000 C 130.631 227.790,130.216 226.800,130.060 226.800 C 129.905 226.800,129.443 225.495,129.035 223.900 C 128.626 222.305,128.166 220.910,128.013 220.800 C 127.662 220.549,126.399 214.190,126.400 212.676 C 126.400 212.058,126.237 211.654,126.037 211.777 C 125.446 212.142,125.086 204.879,125.278 196.481 C 125.404 190.964,125.597 188.601,125.929 188.490 C 126.188 188.404,126.400 187.853,126.400 187.267 C 126.399 185.796,127.669 179.446,128.013 179.200 C 128.166 179.090,128.626 177.695,129.035 176.100 C 129.443 174.505,129.905 173.200,130.060 173.200 C 130.216 173.200,130.631 172.210,130.983 171.000 C 131.335 169.790,131.769 168.800,131.948 168.800 C 132.127 168.800,132.487 168.088,132.747 167.218 C 133.008 166.348,133.449 165.403,133.728 165.118 C 134.006 164.833,134.479 163.970,134.779 163.200 C 135.078 162.430,135.537 161.620,135.797 161.400 C 136.058 161.180,136.607 160.280,137.017 159.400 C 137.428 158.520,138.087 157.565,138.482 157.277 C 138.877 156.990,139.200 156.555,139.200 156.311 C 139.200 155.866,139.646 155.312,141.700 153.207 C 142.305 152.587,142.805 151.926,142.811 151.740 C 142.824 151.317,151.369 142.800,151.780 142.800 C 151.945 142.800,152.587 142.305,153.207 141.700 C 155.312 139.646,155.866 139.200,156.311 139.200 C 156.555 139.200,156.990 138.877,157.277 138.482 C 157.565 138.087,158.520 137.428,159.400 137.017 C 160.280 136.607,161.180 136.058,161.400 135.797 C 161.620 135.537,162.430 135.078,163.200 134.779 C 163.970 134.479,164.833 134.006,165.118 133.728 C 165.403 133.449,166.348 133.008,167.218 132.747 C 168.088 132.487,168.800 132.127,168.800 131.948 C 168.800 131.769,169.790 131.335,171.000 130.983 C 172.210 130.631,173.200 130.216,173.200 130.060 C 173.200 129.905,174.505 129.443,176.100 129.035 C 177.695 128.626,179.090 128.166,179.200 128.013 C 179.449 127.665,185.804 126.399,187.300 126.400 C 187.905 126.400,188.400 126.230,188.400 126.023 C 188.400 125.331,203.592 124.922,209.289 125.460 " stroke="none" fill="#5cf484" fill-rule="evenodd"></path><path id="path1" d="M192.800 100.000 C 192.800 100.220,193.070 100.400,193.400 100.400 C 193.730 100.400,194.000 100.220,194.000 100.000 C 194.000 99.780,193.730 99.600,193.400 99.600 C 193.070 99.600,192.800 99.780,192.800 100.000 M206.000 100.000 C 206.000 100.220,206.270 100.400,206.600 100.400 C 206.930 100.400,207.200 100.220,207.200 100.000 C 207.200 99.780,206.930 99.600,206.600 99.600 C 206.270 99.600,206.000 99.780,206.000 100.000 M99.600 193.400 C 99.600 193.730,99.780 194.000,100.000 194.000 C 100.220 194.000,100.400 193.730,100.400 193.400 C 100.400 193.070,100.220 192.800,100.000 192.800 C 99.780 192.800,99.600 193.070,99.600 193.400 M299.600 193.400 C 299.600 193.730,299.780 194.000,300.000 194.000 C 300.220 194.000,300.400 193.730,300.400 193.400 C 300.400 193.070,300.220 192.800,300.000 192.800 C 299.780 192.800,299.600 193.070,299.600 193.400 M99.600 206.600 C 99.600 206.930,99.780 207.200,100.000 207.200 C 100.220 207.200,100.400 206.930,100.400 206.600 C 100.400 206.270,100.220 206.000,100.000 206.000 C 99.780 206.000,99.600 206.270,99.600 206.600 M299.600 206.600 C 299.600 206.930,299.780 207.200,300.000 207.200 C 300.220 207.200,300.400 206.930,300.400 206.600 C 300.400 206.270,300.220 206.000,300.000 206.000 C 299.780 206.000,299.600 206.270,299.600 206.600 M192.800 300.000 C 192.800 300.220,193.070 300.400,193.400 300.400 C 193.730 300.400,194.000 300.220,194.000 300.000 C 194.000 299.780,193.730 299.600,193.400 299.600 C 193.070 299.600,192.800 299.780,192.800 300.000 M206.000 300.000 C 206.000 300.220,206.270 300.400,206.600 300.400 C 206.930 300.400,207.200 300.220,207.200 300.000 C 207.200 299.780,206.930 299.600,206.600 299.600 C 206.270 299.600,206.000 299.780,206.000 300.000 " stroke="none" fill="#67ad5a" fill-rule="evenodd"></path><path id="path2" d="" stroke="none" fill="#64dc74" fill-rule="evenodd"></path><path id="path3" d="" stroke="none" fill="#64f880" fill-rule="evenodd"></path><path id="path4" d="" stroke="none" fill="#64f880" fill-rule="evenodd"></path></g></svg>